<?xml version="1.0" encoding="UTF-8"?>
<svg id="Layer_2" data-name="Layer 2" xmlns="http://www.w3.org/2000/svg" viewBox="0 0 328.78 446.55">
  <g id="Layer_1-2" data-name="Layer 1">
    <g id="MpSrv6.tif">
      <g>
        <path d="m0,39.28c.14-.07.42-.16.41-.2-.21-1.04.41-1.2,1.22-1.2,1.16,0,2.33-.03,3.49-.03,23.18-.01,46.36-.04,69.53,0,1.3,0,1.57-.4,1.56-1.63-.04-11.56,0-23.11-.02-34.67,0-1.19.43-1.46,1.53-1.46,47,.05,94,.08,141,.1,9.88,0,19.76-.03,29.65-.06.71,0,1.41-.05,2.12-.1,1.57-.1,1.75.05,1.75,1.57,0,11.56,0,23.11,0,34.67,0,.45,0,.91,0,1.58.54,0,1.01,0,1.48,0,23.93,0,47.85-.02,71.78,0,3.89,0,3.24-.41,3.25,3.22.02,17.83,0,35.67,0,53.5,0,1.58,0,1.59-1.6,1.59-108.12,0-216.24,0-324.36,0-.29,0-.58,0-.87-.02-1.37-.06-1.59-.31-1.5-1.65.02-.27.03-.54.04-.9-.19.25-.31.41-.44.57,0-18.29,0-36.59,0-54.88Zm.59,52.68s.06.08.08.12v-51.55s-.06,0-.08,0v51.43Z"/>
        <path d="m163.11,135.37c41,0,82,0,122.99,0,7.61,0,13.71,3.04,17.98,9.35,3.11,4.59,3.82,9.81,3.4,15.26-.53,6.83-.95,13.68-1.42,20.52-.64,9.28-1.29,18.57-1.92,27.85-.38,5.6-.7,11.2-1.08,16.79-.34,5.06-.72,10.11-1.05,15.17-.49,7.34-.94,14.68-1.44,22.01-.54,7.92-1.13,15.83-1.67,23.75-.46,6.8-.86,13.6-1.31,20.4-.55,8.12-1.14,16.25-1.69,24.37-.54,8-1.02,16.01-1.55,24.01-.46,6.84-.98,13.67-1.44,20.51-.45,6.72-.85,13.44-1.3,20.15-.54,8.08-1.09,16.17-1.7,24.25-.27,3.56-.33,7.18-1.09,10.64-2.29,10.46-11.19,15.8-19.5,15.93-16.78.25-33.56.21-50.34.21-51.22.02-102.43.02-153.65-.02-3.97,0-8-.05-11.91-.68-9.46-1.54-15.62-10.22-16.29-17.87-.68-7.82-1.2-15.66-1.76-23.49-.49-6.8-.96-13.59-1.42-20.39-.53-7.88-1.04-15.76-1.56-23.63-.46-6.92-.94-13.85-1.41-20.77-.53-7.92-1.05-15.84-1.58-23.76-.47-6.96-.96-13.93-1.43-20.89-.52-7.79-1.03-15.59-1.55-23.38-.47-7.05-.97-14.09-1.44-21.14-.53-7.84-1.03-15.67-1.56-23.51-.47-6.96-.95-13.93-1.42-20.89-.53-7.96-1.05-15.92-1.58-23.88-.46-6.84-.94-13.68-1.4-20.52-.29-4.24-.54-8.48,1.03-12.56,2.79-7.23,10.17-13.82,20.05-13.8,41,.08,82,.03,122.99.03Z"/>
      </g>
    </g>
  </g>
</svg>